<mxfile host="65bd71144e" pages="2">
    <diagram id="blyl7Wpzs94vMlhsOoYF" name="recommendation-plan">
        <mxGraphModel dx="1367" dy="599" grid="1" gridSize="10" guides="1" tooltips="1" connect="1" arrows="1" fold="1" page="1" pageScale="1" pageWidth="827" pageHeight="1169" math="0" shadow="0">
            <root>
                <mxCell id="WjQbx4GsT-di7SJeu1aI-0"/>
                <mxCell id="WjQbx4GsT-di7SJeu1aI-1" parent="WjQbx4GsT-di7SJeu1aI-0"/>
                <mxCell id="TOc60zCAE1sE-oHS_IKN-0" value="User" style="ellipse;whiteSpace=wrap;html=1;" parent="WjQbx4GsT-di7SJeu1aI-1" vertex="1">
                    <mxGeometry x="344.61" y="380" width="110.77308294209702" height="40" as="geometry"/>
                </mxCell>
                <mxCell id="edUXZDzwjAEuRsUJy5wX-0" value="Web contents" style="rounded=1;whiteSpace=wrap;html=1;" parent="WjQbx4GsT-di7SJeu1aI-1" vertex="1">
                    <mxGeometry x="145" y="370" width="100" height="50" as="geometry"/>
                </mxCell>
                <mxCell id="edUXZDzwjAEuRsUJy5wX-23" value="recommendation list" style="edgeStyle=none;rounded=0;html=1;exitX=0.5;exitY=1;exitDx=0;exitDy=0;exitPerimeter=0;entryX=0.5;entryY=0;entryDx=0;entryDy=0;" parent="WjQbx4GsT-di7SJeu1aI-1" source="edUXZDzwjAEuRsUJy5wX-1" target="TOc60zCAE1sE-oHS_IKN-0" edge="1">
                    <mxGeometry relative="1" as="geometry"/>
                </mxCell>
                <mxCell id="edUXZDzwjAEuRsUJy5wX-1" value="DB" style="shape=cylinder3;whiteSpace=wrap;html=1;boundedLbl=1;backgroundOutline=1;size=15;" parent="WjQbx4GsT-di7SJeu1aI-1" vertex="1">
                    <mxGeometry x="370" y="210" width="60" height="80" as="geometry"/>
                </mxCell>
                <mxCell id="edUXZDzwjAEuRsUJy5wX-8" value="Search by keywords" style="edgeStyle=none;rounded=0;html=1;exitX=0.5;exitY=1;exitDx=0;exitDy=0;entryX=0.55;entryY=-0.166;entryDx=0;entryDy=0;entryPerimeter=0;" parent="WjQbx4GsT-di7SJeu1aI-1" source="edUXZDzwjAEuRsUJy5wX-2" target="edUXZDzwjAEuRsUJy5wX-0" edge="1">
                    <mxGeometry relative="1" as="geometry">
                        <mxPoint x="200" y="310" as="targetPoint"/>
                    </mxGeometry>
                </mxCell>
                <mxCell id="edUXZDzwjAEuRsUJy5wX-2" value="&amp;nbsp;BDI Factor key-word" style="rhombus;whiteSpace=wrap;html=1;" parent="WjQbx4GsT-di7SJeu1aI-1" vertex="1">
                    <mxGeometry x="120" y="220" width="160" height="70" as="geometry"/>
                </mxCell>
                <mxCell id="edUXZDzwjAEuRsUJy5wX-9" value="Result Data" style="edgeStyle=none;rounded=0;html=1;exitX=0;exitY=0.5;exitDx=0;exitDy=0;entryX=0;entryY=0.5;entryDx=0;entryDy=0;" parent="WjQbx4GsT-di7SJeu1aI-1" source="edUXZDzwjAEuRsUJy5wX-0" target="edUXZDzwjAEuRsUJy5wX-6" edge="1">
                    <mxGeometry x="0.0256" relative="1" as="geometry">
                        <Array as="points">
                            <mxPoint x="60" y="395"/>
                            <mxPoint x="60" y="125"/>
                        </Array>
                        <mxPoint as="offset"/>
                    </mxGeometry>
                </mxCell>
                <mxCell id="edUXZDzwjAEuRsUJy5wX-5" value="Web contents" style="rounded=1;whiteSpace=wrap;html=1;" parent="WjQbx4GsT-di7SJeu1aI-1" vertex="1">
                    <mxGeometry x="155" y="380" width="100" height="50" as="geometry"/>
                </mxCell>
                <mxCell id="edUXZDzwjAEuRsUJy5wX-7" value="Start engine" style="edgeStyle=none;rounded=0;html=1;exitX=0.5;exitY=1;exitDx=0;exitDy=0;entryX=0.5;entryY=0;entryDx=0;entryDy=0;" parent="WjQbx4GsT-di7SJeu1aI-1" source="edUXZDzwjAEuRsUJy5wX-6" target="edUXZDzwjAEuRsUJy5wX-2" edge="1">
                    <mxGeometry relative="1" as="geometry"/>
                </mxCell>
                <mxCell id="edUXZDzwjAEuRsUJy5wX-10" style="edgeStyle=none;rounded=0;html=1;exitX=1;exitY=0.5;exitDx=0;exitDy=0;entryX=0;entryY=0.5;entryDx=0;entryDy=0;entryPerimeter=0;" parent="WjQbx4GsT-di7SJeu1aI-1" source="edUXZDzwjAEuRsUJy5wX-6" target="edUXZDzwjAEuRsUJy5wX-1" edge="1">
                    <mxGeometry relative="1" as="geometry">
                        <mxPoint x="330" y="260" as="targetPoint"/>
                        <Array as="points">
                            <mxPoint x="330" y="125"/>
                            <mxPoint x="330" y="250"/>
                        </Array>
                    </mxGeometry>
                </mxCell>
                <mxCell id="edUXZDzwjAEuRsUJy5wX-6" value="Web Crawling engine" style="rounded=0;whiteSpace=wrap;html=1;" parent="WjQbx4GsT-di7SJeu1aI-1" vertex="1">
                    <mxGeometry x="135" y="100" width="130" height="50" as="geometry"/>
                </mxCell>
                <mxCell id="edUXZDzwjAEuRsUJy5wX-13" value="Search by video caption or title" style="edgeStyle=none;rounded=0;html=1;entryX=0.5;entryY=1;entryDx=0;entryDy=0;exitX=0.5;exitY=0;exitDx=0;exitDy=0;" parent="WjQbx4GsT-di7SJeu1aI-1" source="edUXZDzwjAEuRsUJy5wX-11" edge="1">
                    <mxGeometry relative="1" as="geometry">
                        <mxPoint x="660" y="330" as="sourcePoint"/>
                        <mxPoint x="585" y="290" as="targetPoint"/>
                    </mxGeometry>
                </mxCell>
                <mxCell id="edUXZDzwjAEuRsUJy5wX-17" style="edgeStyle=none;rounded=0;html=1;exitX=0;exitY=0.5;exitDx=0;exitDy=0;entryX=1;entryY=0.5;entryDx=0;entryDy=0;entryPerimeter=0;" parent="WjQbx4GsT-di7SJeu1aI-1" source="edUXZDzwjAEuRsUJy5wX-18" target="edUXZDzwjAEuRsUJy5wX-1" edge="1">
                    <mxGeometry relative="1" as="geometry">
                        <Array as="points">
                            <mxPoint x="470" y="125"/>
                            <mxPoint x="470" y="250"/>
                        </Array>
                    </mxGeometry>
                </mxCell>
                <mxCell id="edUXZDzwjAEuRsUJy5wX-11" value="Youtube Data API" style="rounded=0;whiteSpace=wrap;html=1;" parent="WjQbx4GsT-di7SJeu1aI-1" vertex="1">
                    <mxGeometry x="520" y="370" width="130" height="50" as="geometry"/>
                </mxCell>
                <mxCell id="edUXZDzwjAEuRsUJy5wX-16" value="Distribution via" style="edgeStyle=none;rounded=0;html=1;entryX=0.5;entryY=1;entryDx=0;entryDy=0;exitX=0.5;exitY=0;exitDx=0;exitDy=0;" parent="WjQbx4GsT-di7SJeu1aI-1" edge="1">
                    <mxGeometry relative="1" as="geometry">
                        <mxPoint x="585.5" y="230" as="sourcePoint"/>
                        <mxPoint x="584.5" y="161" as="targetPoint"/>
                    </mxGeometry>
                </mxCell>
                <mxCell id="edUXZDzwjAEuRsUJy5wX-18" value="User Characteristics" style="rhombus;whiteSpace=wrap;html=1;" parent="WjQbx4GsT-di7SJeu1aI-1" vertex="1">
                    <mxGeometry x="505" y="90" width="160" height="70" as="geometry"/>
                </mxCell>
                <mxCell id="edUXZDzwjAEuRsUJy5wX-19" value="Web contents" style="rounded=1;whiteSpace=wrap;html=1;" parent="WjQbx4GsT-di7SJeu1aI-1" vertex="1">
                    <mxGeometry x="530" y="230" width="100" height="50" as="geometry"/>
                </mxCell>
                <mxCell id="edUXZDzwjAEuRsUJy5wX-20" value="Video Contents" style="rounded=1;whiteSpace=wrap;html=1;" parent="WjQbx4GsT-di7SJeu1aI-1" vertex="1">
                    <mxGeometry x="540" y="240" width="100" height="50" as="geometry"/>
                </mxCell>
            </root>
        </mxGraphModel>
    </diagram>
    <diagram id="C5RBs43oDa-KdzZeNtuy" name="Screen-plan">
        <mxGraphModel dx="1367" dy="599" grid="1" gridSize="10" guides="1" tooltips="1" connect="1" arrows="1" fold="1" page="1" pageScale="1" pageWidth="827" pageHeight="1169" math="0" shadow="0">
            <root>
                <mxCell id="WIyWlLk6GJQsqaUBKTNV-0"/>
                <mxCell id="WIyWlLk6GJQsqaUBKTNV-1" parent="WIyWlLk6GJQsqaUBKTNV-0"/>
                <mxCell id="ikdFAsfcFVWFwC0WGZBx-0" value="Sign in / Sign up screen" style="rounded=1;whiteSpace=wrap;html=1;" parent="WIyWlLk6GJQsqaUBKTNV-1" vertex="1">
                    <mxGeometry x="330" y="530" width="140" height="50" as="geometry"/>
                </mxCell>
                <mxCell id="w4TpWb6YlQLsbqjr2bWw-0" value="User" style="ellipse;whiteSpace=wrap;html=1;" parent="WIyWlLk6GJQsqaUBKTNV-1" vertex="1">
                    <mxGeometry x="336" y="310" width="128" height="50" as="geometry"/>
                </mxCell>
                <mxCell id="w4TpWb6YlQLsbqjr2bWw-1" value="No" style="endArrow=classic;html=1;rounded=0;exitX=0.5;exitY=1;exitDx=0;exitDy=0;entryX=0.5;entryY=0;entryDx=0;entryDy=0;fontStyle=1" parent="WIyWlLk6GJQsqaUBKTNV-1" source="w4TpWb6YlQLsbqjr2bWw-0" target="ikdFAsfcFVWFwC0WGZBx-0" edge="1">
                    <mxGeometry x="0.6471" y="16" width="50" height="50" relative="1" as="geometry">
                        <mxPoint x="386" y="690" as="sourcePoint"/>
                        <mxPoint x="436" y="620" as="targetPoint"/>
                        <mxPoint as="offset"/>
                    </mxGeometry>
                </mxCell>
                <mxCell id="xrravzEh207jEcqy3YKW-0" value="&lt;h1&gt;Screen plan for Metanion buddy application&lt;/h1&gt;" style="text;html=1;strokeColor=none;fillColor=none;spacing=5;spacingTop=-20;whiteSpace=wrap;overflow=hidden;rounded=0;align=center;" parent="WIyWlLk6GJQsqaUBKTNV-1" vertex="1">
                    <mxGeometry x="85.5" y="80" width="629" height="40" as="geometry"/>
                </mxCell>
                <mxCell id="1" value="" style="edgeStyle=none;html=1;" parent="WIyWlLk6GJQsqaUBKTNV-1" source="0" target="ikdFAsfcFVWFwC0WGZBx-0" edge="1">
                    <mxGeometry relative="1" as="geometry"/>
                </mxCell>
                <mxCell id="0" value="isMember &amp;amp; Logged in" style="rhombus;whiteSpace=wrap;html=1;" parent="WIyWlLk6GJQsqaUBKTNV-1" vertex="1">
                    <mxGeometry x="315" y="410" width="170" height="60" as="geometry"/>
                </mxCell>
                <mxCell id="2" value="Yes" style="edgeStyle=none;html=1;exitX=1;exitY=0.5;exitDx=0;exitDy=0;rounded=0;entryX=1;entryY=0.5;entryDx=0;entryDy=0;" parent="WIyWlLk6GJQsqaUBKTNV-1" source="0" target="k3Dmw-f4pm4tH4ptOr1X-2" edge="1">
                    <mxGeometry x="-0.0441" y="20" relative="1" as="geometry">
                        <mxPoint x="405" y="480" as="sourcePoint"/>
                        <mxPoint x="641" y="670" as="targetPoint"/>
                        <Array as="points">
                            <mxPoint x="641" y="440"/>
                            <mxPoint x="641" y="670"/>
                        </Array>
                        <mxPoint as="offset"/>
                    </mxGeometry>
                </mxCell>
                <mxCell id="k3Dmw-f4pm4tH4ptOr1X-2" value="Message Screen" style="rounded=1;whiteSpace=wrap;html=1;" parent="WIyWlLk6GJQsqaUBKTNV-1" vertex="1">
                    <mxGeometry x="330" y="644.5" width="140" height="50" as="geometry"/>
                </mxCell>
                <mxCell id="k3Dmw-f4pm4tH4ptOr1X-4" value="" style="edgeStyle=none;html=1;exitX=0.5;exitY=1;exitDx=0;exitDy=0;entryX=0.5;entryY=0;entryDx=0;entryDy=0;" parent="WIyWlLk6GJQsqaUBKTNV-1" source="ikdFAsfcFVWFwC0WGZBx-0" target="k3Dmw-f4pm4tH4ptOr1X-2" edge="1">
                    <mxGeometry relative="1" as="geometry">
                        <mxPoint x="406" y="584.5" as="sourcePoint"/>
                        <mxPoint x="476" y="610" as="targetPoint"/>
                    </mxGeometry>
                </mxCell>
                <mxCell id="k3Dmw-f4pm4tH4ptOr1X-10" value="Advisor" style="rounded=0;whiteSpace=wrap;html=1;" parent="WIyWlLk6GJQsqaUBKTNV-1" vertex="1">
                    <mxGeometry x="140" y="579.5" width="120" height="50" as="geometry"/>
                </mxCell>
                <mxCell id="k3Dmw-f4pm4tH4ptOr1X-11" value="Message Input" style="rounded=0;whiteSpace=wrap;html=1;" parent="WIyWlLk6GJQsqaUBKTNV-1" vertex="1">
                    <mxGeometry x="140" y="644" width="120" height="50" as="geometry"/>
                </mxCell>
                <mxCell id="k3Dmw-f4pm4tH4ptOr1X-12" value="Voice Input" style="rounded=0;whiteSpace=wrap;html=1;" parent="WIyWlLk6GJQsqaUBKTNV-1" vertex="1">
                    <mxGeometry x="140" y="709.5" width="120" height="50" as="geometry"/>
                </mxCell>
                <mxCell id="k3Dmw-f4pm4tH4ptOr1X-13" value="UserStatus Screen" style="rounded=1;whiteSpace=wrap;html=1;" parent="WIyWlLk6GJQsqaUBKTNV-1" vertex="1">
                    <mxGeometry x="330" y="760" width="140" height="50" as="geometry"/>
                </mxCell>
                <mxCell id="k3Dmw-f4pm4tH4ptOr1X-14" value="" style="edgeStyle=none;html=1;exitX=0.5;exitY=1;exitDx=0;exitDy=0;" parent="WIyWlLk6GJQsqaUBKTNV-1" source="k3Dmw-f4pm4tH4ptOr1X-2" target="k3Dmw-f4pm4tH4ptOr1X-13" edge="1">
                    <mxGeometry relative="1" as="geometry">
                        <mxPoint x="410" y="590" as="sourcePoint"/>
                        <mxPoint x="410" y="654.5" as="targetPoint"/>
                    </mxGeometry>
                </mxCell>
                <mxCell id="k3Dmw-f4pm4tH4ptOr1X-15" value="Settings Screen" style="rounded=1;whiteSpace=wrap;html=1;" parent="WIyWlLk6GJQsqaUBKTNV-1" vertex="1">
                    <mxGeometry x="218" y="854" width="140" height="50" as="geometry"/>
                </mxCell>
                <mxCell id="k3Dmw-f4pm4tH4ptOr1X-16" value="" style="edgeStyle=none;html=1;exitX=0;exitY=0.5;exitDx=0;exitDy=0;entryX=1;entryY=0.5;entryDx=0;entryDy=0;startArrow=classic;startFill=0;" parent="WIyWlLk6GJQsqaUBKTNV-1" source="k3Dmw-f4pm4tH4ptOr1X-17" target="k3Dmw-f4pm4tH4ptOr1X-15" edge="1">
                    <mxGeometry relative="1" as="geometry">
                        <mxPoint x="405" y="678.5" as="sourcePoint"/>
                        <mxPoint x="405" y="744" as="targetPoint"/>
                    </mxGeometry>
                </mxCell>
                <mxCell id="k3Dmw-f4pm4tH4ptOr1X-17" value="UserMyPage Screen" style="rounded=1;whiteSpace=wrap;html=1;" parent="WIyWlLk6GJQsqaUBKTNV-1" vertex="1">
                    <mxGeometry x="441" y="854" width="140" height="50" as="geometry"/>
                </mxCell>
                <mxCell id="k3Dmw-f4pm4tH4ptOr1X-18" value="" style="edgeStyle=none;html=1;endArrow=none;endFill=0;exitX=0.5;exitY=1;exitDx=0;exitDy=0;" parent="WIyWlLk6GJQsqaUBKTNV-1" source="k3Dmw-f4pm4tH4ptOr1X-13" edge="1">
                    <mxGeometry relative="1" as="geometry">
                        <mxPoint x="420" y="830" as="sourcePoint"/>
                        <mxPoint x="400" y="880" as="targetPoint"/>
                    </mxGeometry>
                </mxCell>
                <mxCell id="k3Dmw-f4pm4tH4ptOr1X-19" value="" style="group" parent="WIyWlLk6GJQsqaUBKTNV-1" vertex="1" connectable="0">
                    <mxGeometry x="123.5" y="180" width="553" height="40" as="geometry"/>
                </mxCell>
                <mxCell id="ikdFAsfcFVWFwC0WGZBx-1" value="Component" style="rounded=0;whiteSpace=wrap;html=1;" parent="k3Dmw-f4pm4tH4ptOr1X-19" vertex="1">
                    <mxGeometry x="294.2410015649452" width="103.84976525821595" height="40" as="geometry"/>
                </mxCell>
                <mxCell id="k3Dmw-f4pm4tH4ptOr1X-5" value="Screen" style="rounded=1;whiteSpace=wrap;html=1;" parent="k3Dmw-f4pm4tH4ptOr1X-19" vertex="1">
                    <mxGeometry x="147.1205007824726" width="103.84976525821595" height="40" as="geometry"/>
                </mxCell>
                <mxCell id="k3Dmw-f4pm4tH4ptOr1X-7" value="Condition" style="rhombus;whiteSpace=wrap;html=1;" parent="k3Dmw-f4pm4tH4ptOr1X-19" vertex="1">
                    <mxGeometry x="441.3615023474178" width="111.63849765258215" height="40" as="geometry"/>
                </mxCell>
                <mxCell id="k3Dmw-f4pm4tH4ptOr1X-9" value="User" style="ellipse;whiteSpace=wrap;html=1;" parent="k3Dmw-f4pm4tH4ptOr1X-19" vertex="1">
                    <mxGeometry width="110.77308294209702" height="40" as="geometry"/>
                </mxCell>
            </root>
        </mxGraphModel>
    </diagram>
    <diagram id="cieSp7k0KAqqU4Du3nbB" name="Page-3">
        <mxGraphModel dx="1367" dy="599" grid="1" gridSize="10" guides="1" tooltips="1" connect="1" arrows="1" fold="1" page="1" pageScale="1" pageWidth="827" pageHeight="1169" math="0" shadow="0">
            <root>
                <mxCell id="vTgRB9y0_BQ2h8RjQxYr-0"/>
                <mxCell id="vTgRB9y0_BQ2h8RjQxYr-1" parent="vTgRB9y0_BQ2h8RjQxYr-0"/>
                <mxCell id="vTgRB9y0_BQ2h8RjQxYr-2" value="" style="rounded=0;whiteSpace=wrap;html=1;" vertex="1" parent="vTgRB9y0_BQ2h8RjQxYr-1">
                    <mxGeometry x="354" y="100" width="120" height="60" as="geometry"/>
                </mxCell>
            </root>
        </mxGraphModel>
    </diagram>
</mxfile>